<svg xmlns="http://www.w3.org/2000/svg" viewBox="0 0 857.04 540.97"><defs><style>.cls-1{font-size:74.45px;fill:#181717;font-family:ModenaSans-Regular, Modena Sans;letter-spacing:-0.06em;}.cls-2{letter-spacing:-0.11em;}.cls-3{letter-spacing:-0.16em;}.cls-4{letter-spacing:-0.08em;}.cls-5{letter-spacing:-0.38em;}.cls-6{letter-spacing:-0.16em;}.cls-7{letter-spacing:-0.28em;}.cls-10,.cls-8{letter-spacing:-0.09em;}.cls-9{letter-spacing:-0.48em;}.cls-10,.cls-11{fill:#fad76d;}.cls-11{letter-spacing:-0.06em;}.cls-12{fill:#282828;}</style></defs><g id="Layer_2" data-name="Layer 2"><g id="Layer_1-2" data-name="Layer 1"><text class="cls-1" transform="translate(0 511.19)">B<tspan class="cls-2" x="74.67" y="0">L</tspan><tspan class="cls-3" x="143.31" y="0">A</tspan><tspan class="cls-4" x="226.4" y="0">CK</tspan><tspan class="cls-5" x="380.8" y="0"> </tspan><tspan class="cls-6" x="397.18" y="0">S</tspan><tspan class="cls-7" x="463.96" y="0">W</tspan><tspan class="cls-8" x="570.2" y="0">A</tspan><tspan x="658.49" y="0">N</tspan><tspan class="cls-9" x="737.63" y="0"> </tspan><tspan class="cls-10" x="746.57" y="0">A</tspan><tspan class="cls-11" x="834.86" y="0">I</tspan></text><path class="cls-12" d="M419.69,142.53a190,190,0,0,1-19.14-19.94c-8.66-10.4-12.95-24.54-12.08-39.08L356.14,83c-.95,20.57,5.25,41.7,17.48,59.49Z" transform="translate(0 0)"/><path class="cls-12" d="M402.05,49a49,49,0,0,1,13.27-10.41l-3.1-1.66-38.68-1.2a80.6,80.6,0,0,0-17.08,43.45l32.33.48C390.22,67.78,394.91,57,402.05,49Z" transform="translate(0 0)"/><path class="cls-12" d="M419.69,36.49a44.47,44.47,0,0,1,17.08-3.42,41.78,41.78,0,0,1,14.29,2.46,43.85,43.85,0,0,1,29.08,42.58c-.48,14.06.39,28.83,10.48,42.1,1.67,2.22,2.07,5.24,2.47,8.1a26.08,26.08,0,0,0,1.27,5.8l1.11,2.94c3.81,10,7.7,20.41,12.71,29.95,1.27,2.38,4.44,4.05,7.54,5.64,1.27.63,2.62,1.35,3.9,2.06l.15-.16a8,8,0,0,0,1.28-1c-.4-3.1-.8-6.2-1.2-9.37-1.19-9.06-2.38-18.51-4-27.73-1.51-8.89,1-14.37,8.42-18.27,11.28-6,17.24-15.72,17.24-27.72a40.09,40.09,0,0,0-.48-6.11c-2.14-14.14-5.4-24.63-10.09-32.89a.94.94,0,0,1-.23-.32H498.41a10.1,10.1,0,1,1-9.93-12,10.15,10.15,0,0,1,9.93,8.1h29.94C511.43,21.4,481.49,3.05,451.46.35,432-1.4,403.24,2.65,377,31.56a1.19,1.19,0,0,1-.31.32l36.85,1.27Z" transform="translate(0 0)"/><path class="cls-12" d="M424.06,146.42H376.24c17,23,40.35,39.4,63,55.29,2.86,2,5.72,4,8.66,6.11,10.24,7.39,21.13,15.26,31.53,23.83v-8.81l-54.57-75.7C424.61,146.9,424.3,146.66,424.06,146.42Z" transform="translate(0 0)"/><path class="cls-12" d="M396.1,303.06l-.24-.23-49.81-45.68H252.8a68.9,68.9,0,0,0,15.65,24l99.05,99.13a68.48,68.48,0,0,0,48.77,20.18h45.84l-1.51-96.27Z" transform="translate(0 0)"/><polygon class="cls-12" points="249.94 255.25 249.94 255.17 249.86 255.17 249.94 255.25"/><path class="cls-12" d="M493.24,195.83c-15.09-9.85-30.74-20-45.67-30.82-3.34-2.54-7.15-5.32-11-8.34l46.78,64.9v13.34c14.14,12,25.5,23.75,34.72,36a93.91,93.91,0,0,1,7.15,10.73,16.41,16.41,0,0,1,2.06-.16,10,10,0,0,1,7.63,3.57l39.32-21.92c-10-14.85-23.76-28.44-41-40.51C520.09,213.38,506.43,204.49,493.24,195.83Z" transform="translate(0 0)"/><path class="cls-12" d="M257.57,195.51l116.29-.95.31.4,40.91,45.75a10.24,10.24,0,0,1,9-.72l-84.2-85.54a8.22,8.22,0,0,1-2,.15,10.1,10.1,0,0,1-10.09-10.08,8.17,8.17,0,0,1,.24-2.07L298.87,112.9l-14.69,13.27a10.27,10.27,0,0,1-1.91,12.71l-.32.24a2.35,2.35,0,0,1-.48.39,10.08,10.08,0,1,1,0-16.2L296.09,110l-47.9-48.69v36a9.92,9.92,0,0,1,6.76,4.13,10.15,10.15,0,0,1-2.39,14.06,9.89,9.89,0,0,1-4.37,1.75v70.22A10.08,10.08,0,0,1,257.57,195.51Z" transform="translate(0 0)"/><path class="cls-12" d="M588.72,291.15a125,125,0,0,0-12.31-24.86l-39.72,22.16a9.55,9.55,0,0,1-2.62,10.4c.08.16.16.4.24.56a6.8,6.8,0,0,0,.56,1.11c2.14,4.61,3.17,10.73,3.09,18.59-.07,8.5-4.05,15.81-11,20l-.32.16-.31-.08c-1.75-.24-3.18-.4-4.85-.56h-.32l-.24-.24-91.34-92.78a10.13,10.13,0,0,1-2.62,11.2,10,10,0,0,1-11.92,1.2v1l-2.38-3a3.48,3.48,0,0,0-.48-.56,10,10,0,0,1,0-12.15l-40.11-44.88-114.54,1a10,10,0,0,1-9.38,8.19v24.7a68.5,68.5,0,0,0,3.26,20.89h96l.32.32,49.81,45.59,66.88,1.19L466,400.45h32.72V365.74l97.71-42.42A141.78,141.78,0,0,0,588.72,291.15Z" transform="translate(0 0)"/><path class="cls-12" d="M596.9,327.37l-94.28,40.91v32.17h26a9.94,9.94,0,0,1-6.43-9.37,10.13,10.13,0,0,1,20.25,0,9.94,9.94,0,0,1-6.43,9.37h46l-.79-.87h4.44C595.39,375.19,599.13,351,596.9,327.37Z" transform="translate(0 0)"/><polygon class="cls-12" points="252.8 323.81 252.8 400.45 334.64 400.45 252.8 323.81"/></g></g></svg>